<?xml version="1.0" encoding="UTF-8"?>
<svg width="25px" height="22px" viewBox="0 0 25 22" version="1.1" xmlns="http://www.w3.org/2000/svg" xmlns:xlink="http://www.w3.org/1999/xlink">
    <!-- Generator: Sketch 41.2 (35397) - http://www.bohemiancoding.com/sketch -->
    <title>dashboard</title>
    <desc>Created with Sketch.</desc>
    <defs></defs>
    <g id="Symbols" stroke="none" stroke-width="1" fill="none" fill-rule="evenodd" opacity="1">
        <g id="left-nav" transform="translate(-54.000000, -304.000000)" fill="red">
            <g id="icons">
                <g transform="translate(54.000000, 304.000000)">
                    <g id="dashboard">
                        <path d="M12.8641235,0.967873613 C12.8438715,0.971569668 12.823879,0.976567804 12.8042703,0.98283691 C12.7992828,0.982758979 12.7942945,0.982758979 12.789307,0.98283691 C10.70253,1.0034662 8.74477244,1.56499682 7.04340107,2.52405647 C6.95752997,2.54723128 6.8798099,2.59386332 6.81895162,2.65872614 C5.08937302,3.68377077 3.64112605,5.12007401 2.61426524,6.84844922 C2.5443526,6.91742548 2.49733856,7.00622977 2.47959557,7.10282526 C1.54287754,8.76878461 0.978654173,10.6769411 0.938376011,12.7140615 C0.857857757,12.864974 0.863555336,13.0472965 0.953339308,13.192887 C0.994522782,15.2544692 1.55184609,17.1853824 2.50952217,18.8639765 C2.53097682,18.9307285 2.56672044,18.9920033 2.61426524,19.043536 C2.72518119,19.2303891 2.837923,19.4170218 2.95842107,19.597178 C3.04061109,19.7632818 3.21126453,19.8670498 3.39655814,19.8635929 C3.58185175,19.8601359 3.74851586,19.7500747 3.82445299,19.5810208 C3.90039011,19.4119669 3.87196565,19.2142741 3.75147579,19.0734626 C3.70702264,19.0070007 3.67481348,18.931453 3.63176942,18.8639765 L4.43978744,18.4001143 C4.66422402,18.3053183 4.78171015,18.0571207 4.71275717,17.8234467 C4.64380419,17.5897727 4.41039444,17.4451181 4.1704481,17.4873532 C4.15524737,17.4915982 4.14026579,17.496592 4.12555821,17.5023165 C4.06747988,17.5119795 4.01168143,17.5322698 3.96096195,17.5621697 L3.13798063,18.0409952 C2.41461464,16.6542696 1.98260578,15.0897212 1.9109903,13.4322998 L2.85367799,13.4322998 C3.02635966,13.4347419 3.18697949,13.3440162 3.27403301,13.1948632 C3.36108653,13.0457102 3.36108653,12.8612383 3.27403301,12.7120853 C3.18697949,12.5629324 3.02635966,12.4722066 2.85367799,12.4746488 L1.9109903,12.4746488 C1.98159561,10.8145627 2.41437772,9.25498881 3.13798063,7.8659534 L3.96096195,8.34477889 C4.11064634,8.43031283 4.29459223,8.42949377 4.44350898,8.34263026 C4.59242574,8.25576674 4.68368936,8.0960554 4.68292173,7.92365795 C4.6821541,7.7512605 4.58947183,7.59236821 4.43978744,7.50683428 L3.61680612,7.02800878 C4.48019169,5.67440263 5.62994153,4.52465259 6.98354788,3.66126702 L7.46237338,4.48424834 C7.59459739,4.71564035 7.88936641,4.79603189 8.12075843,4.66380789 C8.35215044,4.53158388 8.43254199,4.23681486 8.30031799,4.00542285 L7.8214925,3.18244153 C9.21052791,2.45883862 10.7701018,2.02605651 12.4301879,1.9554512 L12.4301879,2.89813889 C12.4277457,3.07082056 12.5184715,3.23144039 12.6676244,3.31849391 C12.8167774,3.40554743 13.0012493,3.40554743 13.1504023,3.31849391 C13.2995553,3.23144039 13.390281,3.07082056 13.3878389,2.89813889 L13.3878389,1.9554512 C15.0467106,2.02600269 16.608795,2.459765 17.9965343,3.18244153 L17.5177088,4.00542285 C17.4321748,4.15510723 17.4329939,4.33905313 17.5198574,4.48796988 C17.6067209,4.63688664 17.7664323,4.72815026 17.9388297,4.72738263 C18.1112272,4.726615 18.2701194,4.63393273 18.3556534,4.48424834 L18.8344789,3.66126702 C20.1854879,4.52493893 21.3397954,5.67521998 22.2012206,7.02800878 L21.3782393,7.50683428 C21.1468473,7.63905829 21.0664557,7.93382731 21.1986798,8.16521933 C21.3309038,8.39661135 21.6256728,8.4770029 21.8570648,8.34477889 L22.6800461,7.8659534 C23.4015677,9.25373189 23.8365146,10.8165216 23.9070365,12.4746488 L22.9643488,12.4746488 C22.9493937,12.4739471 22.9344139,12.4739471 22.9194589,12.4746488 C22.6550109,12.4870448 22.4506823,12.7114712 22.4630783,12.9759192 C22.4754743,13.2403672 22.6999008,13.4446958 22.9643488,13.4322998 L23.9070365,13.4322998 C23.8355584,15.090143 23.4027078,16.6526947 22.6800461,18.0409952 L21.8570648,17.5621697 C21.7581,17.5032861 21.6412304,17.482037 21.5278723,17.5023165 C21.3231877,17.5335304 21.161746,17.6927568 21.1277071,17.8969906 C21.0936681,18.1012244 21.1947422,18.3042034 21.3782393,18.4001143 L22.1862573,18.8639765 C22.1433287,18.931285 22.1109017,19.0071625 22.066551,19.0734626 C21.917799,19.2924586 21.974743,19.5905773 22.193739,19.7393293 C22.412735,19.8880813 22.7108537,19.8311373 22.8596057,19.6121413 C22.982898,19.4278308 23.0905255,19.2350279 23.2037615,19.043536 C23.2478832,19.0007811 23.2834342,18.9499939 23.3085046,18.8939031 C24.2934563,17.168622 24.8638136,15.1663811 24.8796507,13.0432541 C24.8824623,13.0133935 24.8824623,12.9833348 24.8796507,12.9534743 C24.8796507,12.9333354 24.8797503,12.9137366 24.8796507,12.8936211 C24.8808988,12.8736895 24.8808988,12.8536994 24.8796507,12.8337679 C24.8594036,10.7856536 24.324917,8.85695841 23.3982844,7.17764175 C23.3977056,7.01339138 23.312987,6.86089796 23.1738349,6.77363274 C22.1533424,5.08343285 20.7261594,3.66876849 19.0290017,2.65872614 C18.9705344,2.60159842 18.8984167,2.56038828 18.8195156,2.53901977 C17.1044934,1.56342403 15.1228698,1.0009729 13.0137565,0.98283691 C12.9649781,0.969999928 12.9144779,0.96494991 12.8641235,0.967873613 Z M20.4355516,8.49441186 L14.2108202,10.9483925 C13.8342369,10.7010097 13.3908818,10.5593468 12.9090134,10.5593468 C11.5916069,10.5593468 10.5148859,11.6375866 10.5148859,12.9534743 C10.5148859,14.2693619 11.5916069,15.3476018 12.9090134,15.3476018 C14.2264198,15.3476018 15.3031409,14.2693619 15.3031409,12.9534743 C15.3031409,12.9483528 15.3031734,12.9436253 15.3031409,12.938511 L20.5402947,8.67397142 L20.4355516,8.49441186 Z M12.9090134,11.5169978 C13.7091179,11.5169978 14.3454899,12.1542724 14.3454899,12.9534743 C14.3454899,13.75208 13.7089732,14.3899508 12.9090134,14.3899508 C12.1090535,14.3899508 11.4725369,13.75208 11.4725369,12.9534743 C11.4725369,12.1548685 12.1090535,11.5169978 12.9090134,11.5169978 Z M8.03097865,18.6993802 C7.80206081,18.7430594 7.63782634,18.9451942 7.64193294,19.1782057 L7.64193294,21.0935077 C7.64195938,21.3579448 7.85632137,21.5723067 8.12075843,21.5723332 L17.6972683,21.5723332 C17.9617054,21.5723067 18.1760674,21.3579448 18.1760938,21.0935077 L18.1760938,19.1782057 C18.1760674,18.9137686 17.9617054,18.6994067 17.6972683,18.6993802 L8.12075843,18.6993802 C8.10580336,18.6986785 8.09082361,18.6986785 8.07586854,18.6993802 C8.06091347,18.6986785 8.04593372,18.6986785 8.03097865,18.6993802 Z M8.59958393,19.6570312 L17.2184428,19.6570312 L17.2184428,20.6146822 L8.59958393,20.6146822 L8.59958393,19.6570312 Z" id="Shape"></path>
                    </g>
                </g>
            </g>
        </g>
    </g>
</svg>